# xmcd
#
# Track frame offsets:
#	150
#	15267
#	29398
#	36061
#	51421
#	66095
#	79488
#	98034
#	109775
#	123447
#	149093
#	164290
#	183747
#	198143
#	211320
#	224511
#	234470
#	246135
#	259727
#	275536
#
# Disc length: 3873 seconds
#
# Revision: 0
# Processed by: cddbd v1.5.2PL0 Copyright (c) Steve Scherf et al.
# Submitted via: EasyCDDAExtractor 16.0.8.2
#
DISCID=280f1f14
DTITLE=Συλλογικός δίσκος - Όλα τα ρεμπέτικα 27
DYEAR=2008
DGENRE=Ρεμπέτικη
TTITLE0=Καζαντζίδης Στέλιος - Πλήγωσέ με όσο θέλεις [Πρ. Τσαουσάκης]
TTITLE1=Μπέλλου Σωτηρία - Κάποια μάννα αναστενάζει [Β. Τσιτσάνης-Μπ. Μπακάλης]
TTITLE2=Γλυκερία - Θα πάω εκεί στην Αραπιά [Β. Τσιτσάνης]
TTITLE3=Ιακωβίδης Αγάθωνας - Τού ψαρά ο γιός [Δημ. Γεωργιάδης]
TTITLE4=Νταράλας Λουκάς - Ο Περικλής (Χθες βράδυ ταβέρνα)[Γ.Παπαϊωάννου-Κ.Μάνε
TTITLE4=σης]
TTITLE5=Παπαζήσης Μιχάλης - Της αμαρτίας το στρατί [Απ. Καλδάρας-Κ. Βίρβος]
TTITLE6=Σκαρπέλης Κούλης - Το πλουσιόπαιδο [Μ. Χιώτης-Χρ. Κολοκοτρώνης]
TTITLE7=Άνευ ερμηνευτού - Σόλο μπουζούκι [Γ. Μητσάκης]
TTITLE8=Γκολές Μπάμπης - Στα νησιά του παραδείσου [Κ.Κοσμαδόπουλος-Χ.Βασιλειάδ
TTITLE8=ης]
TTITLE9=Δασκαλάκης Μιχάλης - Εγώ κακός δεν ήμουνα [Μ. Δασκαλάκης]
TTITLE10=Βεργιώτης Τάκης - Ξημέρωσε, ξημέρωσε[ΣΠεριστέρης-ΧΚαλφοπούλου/ΒΤαμβάκ
TTITLE10=ης]
TTITLE11=Καραμάνης Γιάννης - Μα τι να κάνω, σ' αγαπώ [Καραμαούνας]
TTITLE12=Κυριαζής Γιάννης - Μάννα μου, για δες πώς έχω γίνει [Γ. Κυριαζής]
TTITLE13=Μουφλουζέλης Γιώργος - Δίκιο είχαν οι αρχαίοι [Γ. Μουφλουζέλης]
TTITLE14=Περγιάλης Νίκος - Η αδέκαρη [παραδ., δ. Ν. Περγιάλης]
TTITLE15=Μητσάκης Γιώργος - Μάς έκλεισαν τη στράτα μας [Γ. Μητσάκης]
TTITLE16=Μαριώ - Θεσσαλονίκη ξακουσμένη [Β. Τσιτσάνης]
TTITLE17=Ευσταθίου Δημήτρης - Είχα δυό αγάπες [Δ. Ευσταθίου]
TTITLE18=Κάβουρας Γιώργος - Είμαι τεχνίτης ξακουστός [Κ. Σκαρβέλης]
TTITLE19=Περπινιάδης Στελλάκης - Η πεθερά μου [Σ. Περπινιάδης]
EXTD=
EXTT0=
EXTT1=
EXTT2=
EXTT3=
EXTT4=
EXTT5=
EXTT6=
EXTT7=
EXTT8=
EXTT9=
EXTT10=
EXTT11=
EXTT12=
EXTT13=
EXTT14=
EXTT15=
EXTT16=
EXTT17=
EXTT18=
EXTT19=
PLAYORDER=
